<?xml version="1.0" encoding="UTF-8"?>
<!DOCTYPE svg PUBLIC "-//W3C//DTD SVG 1.1//EN" "http://www.w3.org/Graphics/SVG/1.1/DTD/svg11.dtd">
<svg xmlns="http://www.w3.org/2000/svg" version="1.1" width="512px" height="512px" style="shape-rendering:geometricPrecision; text-rendering:geometricPrecision; image-rendering:optimizeQuality; fill-rule:evenodd; clip-rule:evenodd" xmlns:xlink="http://www.w3.org/1999/xlink">
<g><path style="opacity:0.99" fill="#41a080" d="M 210.5,-0.5 C 239.833,-0.5 269.167,-0.5 298.5,-0.5C 228.368,70.1321 158.035,140.632 87.5,211C 102.086,226.088 117.086,240.588 132.5,254.5C 173.5,296.167 214.833,337.5 256.5,378.5C 256.5,379.167 256.5,379.833 256.5,380.5C 242.035,394.465 227.701,408.631 213.5,423C 212.833,423.667 212.167,423.667 211.5,423C 140.965,352.299 70.2988,281.799 -0.5,211.5C -0.5,211.167 -0.5,210.833 -0.5,210.5C 70.1667,140.5 140.5,70.1667 210.5,-0.5 Z"/></g>
<g><path style="opacity:1" fill="#75d0a8" d="M 298.5,-0.5 C 299.167,-0.5 299.833,-0.5 300.5,-0.5C 370.5,70.1667 440.833,140.5 511.5,210.5C 511.5,240.167 511.5,269.833 511.5,299.5C 440.701,229.201 370.035,158.701 299.5,88C 298.833,87.3333 298.167,87.3333 297.5,88C 282.578,102.419 268.245,117.252 254.5,132.5C 213.5,172.833 172.833,213.5 132.5,254.5C 117.086,240.588 102.086,226.088 87.5,211C 158.035,140.632 228.368,70.1321 298.5,-0.5 Z"/></g>
<g><path style="opacity:0.99" fill="#41a181" d="M 511.5,299.5 C 511.5,299.833 511.5,300.167 511.5,300.5C 440.833,370.5 370.5,440.833 300.5,511.5C 271.167,511.5 241.833,511.5 212.5,511.5C 282.632,440.868 352.965,370.368 423.5,300C 409.299,285.631 394.965,271.465 380.5,257.5C 380.158,256.662 379.492,256.328 378.5,256.5C 337.5,214.833 296.167,173.5 254.5,132.5C 268.245,117.252 282.578,102.419 297.5,88C 298.167,87.3333 298.833,87.3333 299.5,88C 370.035,158.701 440.701,229.201 511.5,299.5 Z"/></g>
<g><path style="opacity:1" fill="#2f755d" d="M -0.5,211.5 C 70.2988,281.799 140.965,352.299 211.5,423C 212.167,423.667 212.833,423.667 213.5,423C 227.701,408.631 242.035,394.465 256.5,380.5C 297.833,339.5 339.167,298.5 380.5,257.5C 394.965,271.465 409.299,285.631 423.5,300C 352.965,370.368 282.632,440.868 212.5,511.5C 211.833,511.5 211.167,511.5 210.5,511.5C 140.5,440.833 70.1667,370.5 -0.5,300.5C -0.5,270.833 -0.5,241.167 -0.5,211.5 Z"/></g>
<g><path style="opacity:0.953" fill="#338166" d="M 378.5,256.5 C 379.492,256.328 380.158,256.662 380.5,257.5C 339.167,298.5 297.833,339.5 256.5,380.5C 256.5,379.833 256.5,379.167 256.5,378.5C 297.5,338.167 338.167,297.5 378.5,256.5 Z"/></g>
</svg>
